<?xml version="1.0" encoding="UTF-8" standalone="no"?>
<!-- Created with Inkscape (http://www.inkscape.org/) -->

<svg
   width="135.261mm"
   height="135.261mm"
   viewBox="0 0 135.261 135.261"
   version="1.1"
   id="svg5"
   xmlns="http://www.w3.org/2000/svg"
   xmlns:svg="http://www.w3.org/2000/svg">
  <defs
     id="defs2">
    <rect
       x="134.17622"
       y="364.89386"
       width="418.07346"
       height="140.72141"
       id="rect4816" />
    <filter
       style="color-interpolation-filters:sRGB"
       id="filter20009"
       x="-0.018211622"
       y="-0.017927216"
       width="1.0361594"
       height="1.036858">
      <feGaussianBlur
         stdDeviation="0.31134552"
         id="feGaussianBlur20007" />
    </filter>
    <filter
       style="color-interpolation-filters:sRGB"
       id="filter20015"
       x="-0.030186042"
       y="-0.03025087"
       width="1.0601082"
       height="1.0615053">
      <feGaussianBlur
         stdDeviation="0.62269103"
         id="feGaussianBlur20013" />
    </filter>
    <filter
       style="color-interpolation-filters:sRGB"
       id="filter20021"
       x="-0.042160466"
       y="-0.042574521"
       width="1.0840571"
       height="1.0861527">
      <feGaussianBlur
         stdDeviation="0.93403654"
         id="feGaussianBlur20019" />
    </filter>
    <filter
       style="color-interpolation-filters:sRGB"
       id="filter20027"
       x="-0.054134887"
       y="-0.054898173"
       width="1.1080059"
       height="1.1108">
      <feGaussianBlur
         stdDeviation="1.2453821"
         id="feGaussianBlur20025" />
    </filter>
    <filter
       style="color-interpolation-filters:sRGB"
       id="filter20053"
       x="-0.018211622"
       y="-0.017927216"
       width="1.0361594"
       height="1.036858">
      <feGaussianBlur
         stdDeviation="0.31134552"
         id="feGaussianBlur20051" />
    </filter>
    <filter
       style="color-interpolation-filters:sRGB"
       id="filter20059"
       x="-0.030186042"
       y="-0.03025087"
       width="1.0601082"
       height="1.0615053">
      <feGaussianBlur
         stdDeviation="0.62269103"
         id="feGaussianBlur20057" />
    </filter>
    <filter
       style="color-interpolation-filters:sRGB"
       id="filter20065"
       x="-0.042160466"
       y="-0.042574521"
       width="1.0840571"
       height="1.0861527">
      <feGaussianBlur
         stdDeviation="0.93403654"
         id="feGaussianBlur20063" />
    </filter>
    <filter
       style="color-interpolation-filters:sRGB"
       id="filter20071"
       x="-0.054134887"
       y="-0.054898173"
       width="1.1080059"
       height="1.1108">
      <feGaussianBlur
         stdDeviation="1.2453821"
         id="feGaussianBlur20069" />
    </filter>
    <filter
       style="color-interpolation-filters:sRGB"
       id="filter20097"
       x="-0.018211622"
       y="-0.017927216"
       width="1.0361594"
       height="1.036858">
      <feGaussianBlur
         stdDeviation="0.31134552"
         id="feGaussianBlur20095" />
    </filter>
    <filter
       style="color-interpolation-filters:sRGB"
       id="filter20103"
       x="-0.030186042"
       y="-0.03025087"
       width="1.0601082"
       height="1.0615053">
      <feGaussianBlur
         stdDeviation="0.62269103"
         id="feGaussianBlur20101" />
    </filter>
    <filter
       style="color-interpolation-filters:sRGB"
       id="filter20109"
       x="-0.042160466"
       y="-0.042574521"
       width="1.0840571"
       height="1.0861527">
      <feGaussianBlur
         stdDeviation="0.93403654"
         id="feGaussianBlur20107" />
    </filter>
    <filter
       style="color-interpolation-filters:sRGB"
       id="filter20115"
       x="-0.054134887"
       y="-0.054898173"
       width="1.1080059"
       height="1.1108">
      <feGaussianBlur
         stdDeviation="1.2453821"
         id="feGaussianBlur20113" />
    </filter>
    <filter
       style="color-interpolation-filters:sRGB"
       id="filter20141"
       x="-0.018211622"
       y="-0.017927216"
       width="1.0361594"
       height="1.036858">
      <feGaussianBlur
         stdDeviation="0.31134552"
         id="feGaussianBlur20139" />
    </filter>
    <filter
       style="color-interpolation-filters:sRGB"
       id="filter20147"
       x="-0.030186042"
       y="-0.03025087"
       width="1.0601082"
       height="1.0615053">
      <feGaussianBlur
         stdDeviation="0.62269103"
         id="feGaussianBlur20145" />
    </filter>
    <filter
       style="color-interpolation-filters:sRGB"
       id="filter20153"
       x="-0.042160466"
       y="-0.042574521"
       width="1.0840571"
       height="1.0861527">
      <feGaussianBlur
         stdDeviation="0.93403654"
         id="feGaussianBlur20151" />
    </filter>
    <filter
       style="color-interpolation-filters:sRGB"
       id="filter20159"
       x="-0.054134887"
       y="-0.054898173"
       width="1.1080059"
       height="1.1108">
      <feGaussianBlur
         stdDeviation="1.2453821"
         id="feGaussianBlur20157" />
    </filter>
    <filter
       style="color-interpolation-filters:sRGB"
       id="filter20185"
       x="-0.018211622"
       y="-0.017927216"
       width="1.0361594"
       height="1.036858">
      <feGaussianBlur
         stdDeviation="0.31134552"
         id="feGaussianBlur20183" />
    </filter>
    <filter
       style="color-interpolation-filters:sRGB"
       id="filter20191"
       x="-0.030186042"
       y="-0.03025087"
       width="1.0601082"
       height="1.0615053">
      <feGaussianBlur
         stdDeviation="0.62269103"
         id="feGaussianBlur20189" />
    </filter>
    <filter
       style="color-interpolation-filters:sRGB"
       id="filter20197"
       x="-0.042160466"
       y="-0.042574521"
       width="1.0840571"
       height="1.0861527">
      <feGaussianBlur
         stdDeviation="0.93403654"
         id="feGaussianBlur20195" />
    </filter>
    <filter
       style="color-interpolation-filters:sRGB"
       id="filter20203"
       x="-0.054134887"
       y="-0.054898173"
       width="1.1080059"
       height="1.1108">
      <feGaussianBlur
         stdDeviation="1.2453821"
         id="feGaussianBlur20201" />
    </filter>
    <filter
       style="color-interpolation-filters:sRGB"
       id="filter20229"
       x="-0.018211622"
       y="-0.017927216"
       width="1.0361594"
       height="1.036858">
      <feGaussianBlur
         stdDeviation="0.31134552"
         id="feGaussianBlur20227" />
    </filter>
    <filter
       style="color-interpolation-filters:sRGB"
       id="filter20235"
       x="-0.030186042"
       y="-0.03025087"
       width="1.0601082"
       height="1.0615053">
      <feGaussianBlur
         stdDeviation="0.62269103"
         id="feGaussianBlur20233" />
    </filter>
    <filter
       style="color-interpolation-filters:sRGB"
       id="filter20241"
       x="-0.042160466"
       y="-0.042574521"
       width="1.0840571"
       height="1.0861527">
      <feGaussianBlur
         stdDeviation="0.93403654"
         id="feGaussianBlur20239" />
    </filter>
    <filter
       style="color-interpolation-filters:sRGB"
       id="filter20247"
       x="-0.054134887"
       y="-0.054898173"
       width="1.1080059"
       height="1.1108">
      <feGaussianBlur
         stdDeviation="1.2453821"
         id="feGaussianBlur20245" />
    </filter>
    <filter
       style="color-interpolation-filters:sRGB"
       id="filter20273"
       x="-0.018211622"
       y="-0.017927216"
       width="1.0361594"
       height="1.036858">
      <feGaussianBlur
         stdDeviation="0.31134552"
         id="feGaussianBlur20271" />
    </filter>
    <filter
       style="color-interpolation-filters:sRGB"
       id="filter20279"
       x="-0.030186042"
       y="-0.03025087"
       width="1.0601082"
       height="1.0615053">
      <feGaussianBlur
         stdDeviation="0.62269103"
         id="feGaussianBlur20277" />
    </filter>
    <filter
       style="color-interpolation-filters:sRGB"
       id="filter20285"
       x="-0.042160466"
       y="-0.042574521"
       width="1.0840571"
       height="1.0861527">
      <feGaussianBlur
         stdDeviation="0.93403654"
         id="feGaussianBlur20283" />
    </filter>
    <filter
       style="color-interpolation-filters:sRGB"
       id="filter20291"
       x="-0.054134887"
       y="-0.054898173"
       width="1.1080059"
       height="1.1108">
      <feGaussianBlur
         stdDeviation="1.2453821"
         id="feGaussianBlur20289" />
    </filter>
    <filter
       style="color-interpolation-filters:sRGB"
       id="filter20317"
       x="-0.018211622"
       y="-0.017927216"
       width="1.0361594"
       height="1.036858">
      <feGaussianBlur
         stdDeviation="0.31134552"
         id="feGaussianBlur20315" />
    </filter>
    <filter
       style="color-interpolation-filters:sRGB"
       id="filter20323"
       x="-0.030186042"
       y="-0.03025087"
       width="1.0601082"
       height="1.0615053">
      <feGaussianBlur
         stdDeviation="0.62269103"
         id="feGaussianBlur20321" />
    </filter>
    <filter
       style="color-interpolation-filters:sRGB"
       id="filter20329"
       x="-0.042160466"
       y="-0.042574521"
       width="1.0840571"
       height="1.0861527">
      <feGaussianBlur
         stdDeviation="0.93403654"
         id="feGaussianBlur20327" />
    </filter>
    <filter
       style="color-interpolation-filters:sRGB"
       id="filter20335"
       x="-0.054134887"
       y="-0.054898173"
       width="1.1080059"
       height="1.1108">
      <feGaussianBlur
         stdDeviation="1.2453821"
         id="feGaussianBlur20333" />
    </filter>
  </defs>
  <g
     id="layer2"
     style="mix-blend-mode:normal">
    <path
       style="opacity:1;fill:#f6d5ff;fill-opacity:1;stroke:#000000;stroke-width:1.37953;stroke-miterlimit:4;stroke-dasharray:none;stroke-opacity:1"
       d=""
       id="path26919"
       transform="scale(0.26458333)" />
    <path
       style="opacity:1;fill:#f6d5ff;fill-opacity:1;stroke:#000000;stroke-width:1.37953;stroke-miterlimit:4;stroke-dasharray:none;stroke-opacity:1"
       d=""
       id="path27151"
       transform="scale(0.26458333)" />
    <path
       style="opacity:1;fill:#f6d5ff;fill-opacity:1;stroke:#000000;stroke-width:1.37953;stroke-miterlimit:4;stroke-dasharray:none;stroke-opacity:1"
       d=""
       id="path27268"
       transform="scale(0.26458333)" />
    <path
       style="opacity:1;fill:#f6d5ff;fill-opacity:1;stroke:#000000;stroke-width:1.37953;stroke-miterlimit:4;stroke-dasharray:none;stroke-opacity:1"
       d=""
       id="path27502"
       transform="scale(0.26458333)" />
    <path
       style="opacity:1;fill:#f6d5ff;fill-opacity:1;stroke:#000000;stroke-width:1.37953;stroke-miterlimit:4;stroke-dasharray:none;stroke-opacity:1"
       d=""
       id="path27541"
       transform="scale(0.26458333)" />
    <path
       style="opacity:1;fill:#f6d5ff;fill-opacity:1;stroke:#000000;stroke-width:1.37953;stroke-miterlimit:4;stroke-dasharray:none;stroke-opacity:1"
       d=""
       id="path27580"
       transform="scale(0.26458333)" />
    <rect
       style="fill:#ffffff;fill-opacity:1;fill-rule:evenodd;stroke-width:0.206097"
       id="rect137"
       width="135.26141"
       height="135.26141"
       x="0.6593129"
       y="0.84002012" />
    <rect
       style="mix-blend-mode:normal;fill:#ffffff;fill-opacity:1;stroke:#ffffff;stroke-width:4;stroke-linecap:round;stroke-linejoin:round;stroke-miterlimit:4;stroke-dasharray:none;stroke-opacity:1;paint-order:fill markers stroke"
       id="rect41087"
       width="114.75877"
       height="102.22073"
       x="15.74453"
       y="23.908596" />
    <rect
       style="opacity:1;fill:#5a82a2;fill-opacity:1;stroke:#000000;stroke-width:3.95911;stroke-linecap:round;stroke-linejoin:round;stroke-miterlimit:4;stroke-dasharray:none;stroke-opacity:1;paint-order:fill markers stroke"
       id="rect39055"
       width="120.71239"
       height="107.22193"
       x="10.320087"
       y="18.087757" />
    <rect
       style="mix-blend-mode:normal;fill:#ffffff;fill-opacity:1;stroke:#ffffff;stroke-width:4;stroke-linecap:round;stroke-linejoin:round;stroke-miterlimit:4;stroke-dasharray:none;stroke-opacity:1;paint-order:fill markers stroke"
       id="rect39055-8"
       width="114.32643"
       height="102.22073"
       x="8.4914665"
       y="12.034909" />
    <rect
       style="opacity:1;fill:#5d81ce;fill-opacity:1;stroke:#000000;stroke-width:4.85646;stroke-linejoin:round;stroke-miterlimit:4;stroke-dasharray:none;stroke-opacity:1"
       id="rect28983"
       width="110.42524"
       height="101.26993"
       x="6.2612987"
       y="9.0999498" />
    <path
       id="path29107"
       style="opacity:1;fill:#ffffff;fill-opacity:1;stroke:#000000;stroke-width:4.90668;stroke-linecap:round;stroke-linejoin:round;stroke-miterlimit:4;stroke-dasharray:none;stroke-opacity:1;paint-order:fill markers stroke"
       d="m 61.368123,33.725152 c -18.912022,0.01647 -36.49561,10.153259 -46.582006,26.854149 10.086398,16.70088 27.669985,26.83767 46.582006,26.85414 C 80.29471,87.417041 97.88976,77.264891 107.9721,60.543381 97.87333,43.849341 80.28122,33.72597 61.368123,33.725152 Z" />
    <ellipse
       style="opacity:1;fill:#ffffff;fill-opacity:1;stroke:#000000;stroke-width:4;stroke-miterlimit:4;stroke-dasharray:none;stroke-opacity:1"
       id="path29214"
       cx="62.439598"
       cy="60.852962"
       rx="22.824558"
       ry="23.151199" />
    <path
       style="fill:none;stroke:#000000;stroke-width:4;stroke-linecap:butt;stroke-linejoin:miter;stroke-miterlimit:4;stroke-dasharray:none;stroke-opacity:1"
       d="m 41.543445,67.949491 12.538048,-14.26744 11.673356,12.9704"
       id="path29329" />
    <path
       style="fill:none;stroke:#000000;stroke-width:4;stroke-linecap:round;stroke-linejoin:miter;stroke-miterlimit:4;stroke-dasharray:none;stroke-opacity:1"
       d="m 61.755645,71.732521 12.213788,-11.99761 8.646927,7.89032"
       id="path29335" />
    <path
       id="path29457"
       style="opacity:1;fill:none;stroke:#000000;stroke-width:4;stroke-linecap:butt;stroke-miterlimit:4;stroke-dasharray:none"
       d="m 81.51926,49.452851 c -1.09479,1.45261 -2.83453,2.39172 -4.793621,2.39172 -3.313047,0 -5.998806,-2.68575 -5.998807,-5.9988 -10e-7,-2.26723 1.257775,-4.2407 3.113625,-5.26069" />
    <path
       style="opacity:1;fill:#30858d;fill-opacity:1;stroke:#224b4f;stroke-width:1;stroke-linecap:round;stroke-linejoin:round;stroke-miterlimit:4;stroke-dasharray:none;stroke-opacity:1;paint-order:fill markers stroke"
       d="m 60.330954,81.749923 c -3.205949,-0.287931 -6.96635,-1.724626 -9.82971,-3.755528 -2.641314,-1.873414 -6.472333,-6.615935 -6.89192,-8.531691 -0.101864,-0.465105 0.613791,-1.369052 5.134351,-6.485199 2.888996,-3.26962 5.322713,-5.922433 5.408263,-5.895139 0.08555,0.02729 2.191711,2.311559 4.680352,5.076148 l 4.524804,5.026525 -1.827549,1.867601 c -1.627843,1.663523 -1.827548,1.955139 -1.827548,2.668675 0,1.718424 1.96692,2.650503 3.375578,1.59961 0.342995,-0.255884 2.924741,-2.750799 5.737211,-5.544257 l 5.113589,-5.079013 0.520388,0.410142 c 0.72726,0.573188 6.87056,6.198565 6.87056,6.291325 0,0.373261 -1.536576,2.94894 -2.605651,4.36771 -4.266139,5.661591 -11.114905,8.635815 -18.382718,7.983091 z"
       id="path32322" />
    <path
       style="opacity:1;fill:#edb44c;fill-opacity:1;stroke:#ffd625;stroke-width:1;stroke-linecap:round;stroke-linejoin:round;stroke-miterlimit:4;stroke-dasharray:none;stroke-opacity:1;paint-order:fill markers stroke"
       d="m 75.653715,49.586728 c -1.774743,-0.563655 -2.871226,-2.188643 -2.718612,-4.028982 0.0516,-0.622223 0.260115,-1.385115 0.463365,-1.695315 0.321397,-0.490514 0.431964,-0.531654 0.848561,-0.315738 0.743625,0.385413 4.910561,4.656254 4.910561,5.033008 0,0.718256 -2.316676,1.38408 -3.503875,1.007027 z"
       id="path33790" />
    <path
       style="opacity:1;fill:#cce8ff;fill-opacity:1;stroke:#3d65f7;stroke-width:1;stroke-linecap:round;stroke-linejoin:round;stroke-miterlimit:4;stroke-dasharray:none;stroke-opacity:1;paint-order:fill markers stroke"
       d="m 78.400984,60.890046 c -2.377905,-2.179164 -4.379055,-3.962855 -4.446994,-3.963755 -0.06794,-7.94e-4 -1.80648,1.623433 -3.863422,3.609626 L 66.35068,64.14718 65.687631,63.400214 C 60.874895,57.978343 54.197769,50.655632 54.066639,50.655632 c -0.09257,0 -2.824226,3.025082 -6.070346,6.722406 l -5.902036,6.722409 -0.191074,-0.723601 c -0.320059,-1.21208 -0.03265,-5.714659 0.494646,-7.74923 0.987914,-3.811842 2.891176,-7.052445 5.84027,-9.943971 2.25689,-2.212837 4.619315,-3.679406 7.516039,-4.665887 3.562858,-1.213331 6.981143,-1.493086 10.355363,-0.847492 2.641785,0.505457 3.811437,0.948087 3.631507,1.374267 -0.08268,0.195845 -0.32131,0.793832 -0.530283,1.328862 -1.553274,3.976814 0.193744,8.40968 4.063153,10.309801 1.105228,0.542738 1.465527,0.606947 3.405696,0.606947 1.984184,0 2.283542,-0.05642 3.50099,-0.659845 l 1.331285,-0.659847 0.53811,1.740713 c 0.841491,2.722115 1.000625,3.830367 0.973175,6.777381 -0.04173,4.479626 0.383389,4.488685 -4.62215,-0.0985 z"
       id="path37313" />
    <path
       style="opacity:1;fill:#6caadb;fill-opacity:1;stroke:#30486e;stroke-width:0.971293;stroke-linecap:round;stroke-linejoin:round;stroke-miterlimit:4;stroke-dasharray:none;stroke-opacity:1;paint-order:fill markers stroke"
       d="M 8.2986638,59.734911 V 11.26383 H 61.473915 114.64916 V 59.734911 108.20598 H 61.473915 8.2986638 Z M 68.80843,89.070571 c 15.66969,-2.25535 29.1795,-10.94072 38.46548,-24.72919 1.85156,-2.74932 2.20003,-3.58851 1.87139,-4.5066 -0.64177,-1.79279 -4.78589,-7.37898 -8.03099,-10.8256 -8.72276,-9.26445 -19.48999,-14.950541 -32.000275,-16.899098 -3.431627,-0.534498 -11.454519,-0.533298 -14.872771,0.0021 -16.225681,2.542002 -30.03559,11.729638 -38.984046,25.935818 -1.396457,2.21695 -1.403693,2.79093 -0.06253,4.95895 6.099656,9.86019 15.644355,18.08429 25.947477,22.35742 5.554776,2.30379 10.462873,3.48336 17.071955,4.1029 1.733905,0.16254 8.457802,-0.0893 10.594302,-0.39682 z"
       id="path38137" />
  </g>
</svg>
